<mxfile host="app.diagrams.net" modified="2023-06-24T00:19:37.415Z" agent="Mozilla/5.0 (Windows NT 10.0; Win64; x64) AppleWebKit/537.36 (KHTML, like Gecko) Chrome/114.0.0.0 Safari/537.36" version="21.5.0" etag="BaMlI-ojYABXdBQClJnp" type="device">
  <diagram id="DCdoVFRJ0JXVwGNWpt6n" name="PÃ¡gina-1">
    <mxGraphModel dx="880" dy="452" grid="1" gridSize="10" guides="1" tooltips="1" connect="1" arrows="1" fold="1" page="1" pageScale="1" pageWidth="827" pageHeight="1169" math="0" shadow="0">
      <root>
        <mxCell id="0" />
        <mxCell id="1" parent="0" />
        <mxCell id="yzSwMuTql2DnZeXXJh39-1" value="" style="sketch=0;points=[[0,0,0],[0.25,0,0],[0.5,0,0],[0.75,0,0],[1,0,0],[0,1,0],[0.25,1,0],[0.5,1,0],[0.75,1,0],[1,1,0],[0,0.25,0],[0,0.5,0],[0,0.75,0],[1,0.25,0],[1,0.5,0],[1,0.75,0]];outlineConnect=0;fontColor=#232F3E;gradientColor=#945DF2;gradientDirection=north;fillColor=#5A30B5;strokeColor=#ffffff;dashed=0;verticalLabelPosition=bottom;verticalAlign=top;align=center;html=1;fontSize=12;fontStyle=0;aspect=fixed;shape=mxgraph.aws4.resourceIcon;resIcon=mxgraph.aws4.glue;" vertex="1" parent="1">
          <mxGeometry x="280" y="160" width="78" height="78" as="geometry" />
        </mxCell>
        <mxCell id="yzSwMuTql2DnZeXXJh39-4" value="" style="sketch=0;points=[[0,0,0],[0.25,0,0],[0.5,0,0],[0.75,0,0],[1,0,0],[0,1,0],[0.25,1,0],[0.5,1,0],[0.75,1,0],[1,1,0],[0,0.25,0],[0,0.5,0],[0,0.75,0],[1,0.25,0],[1,0.5,0],[1,0.75,0]];outlineConnect=0;fontColor=#232F3E;gradientColor=#60A337;gradientDirection=north;fillColor=#277116;strokeColor=#ffffff;dashed=0;verticalLabelPosition=bottom;verticalAlign=top;align=center;html=1;fontSize=12;fontStyle=0;aspect=fixed;shape=mxgraph.aws4.resourceIcon;resIcon=mxgraph.aws4.s3;" vertex="1" parent="1">
          <mxGeometry x="465" y="370" width="78" height="78" as="geometry" />
        </mxCell>
        <mxCell id="yzSwMuTql2DnZeXXJh39-11" value="Extract file" style="edgeStyle=orthogonalEdgeStyle;rounded=0;orthogonalLoop=1;jettySize=auto;html=1;entryX=1;entryY=0.5;entryDx=0;entryDy=0;entryPerimeter=0;startArrow=classic;startFill=1;endArrow=none;endFill=0;" edge="1" parent="1" source="yzSwMuTql2DnZeXXJh39-5" target="yzSwMuTql2DnZeXXJh39-1">
          <mxGeometry relative="1" as="geometry" />
        </mxCell>
        <mxCell id="yzSwMuTql2DnZeXXJh39-5" value="" style="sketch=0;points=[[0,0,0],[0.25,0,0],[0.5,0,0],[0.75,0,0],[1,0,0],[0,1,0],[0.25,1,0],[0.5,1,0],[0.75,1,0],[1,1,0],[0,0.25,0],[0,0.5,0],[0,0.75,0],[1,0.25,0],[1,0.5,0],[1,0.75,0]];outlineConnect=0;fontColor=#232F3E;gradientColor=#60A337;gradientDirection=north;fillColor=#277116;strokeColor=#ffffff;dashed=0;verticalLabelPosition=bottom;verticalAlign=top;align=center;html=1;fontSize=12;fontStyle=0;aspect=fixed;shape=mxgraph.aws4.resourceIcon;resIcon=mxgraph.aws4.s3;" vertex="1" parent="1">
          <mxGeometry x="465" y="160" width="78" height="78" as="geometry" />
        </mxCell>
        <mxCell id="yzSwMuTql2DnZeXXJh39-10" value="Store file" style="edgeStyle=orthogonalEdgeStyle;rounded=0;orthogonalLoop=1;jettySize=auto;html=1;entryX=1;entryY=0.5;entryDx=0;entryDy=0;entryPerimeter=0;startArrow=none;startFill=0;" edge="1" parent="1" source="yzSwMuTql2DnZeXXJh39-6" target="yzSwMuTql2DnZeXXJh39-5">
          <mxGeometry relative="1" as="geometry" />
        </mxCell>
        <mxCell id="yzSwMuTql2DnZeXXJh39-6" value="" style="outlineConnect=0;dashed=0;verticalLabelPosition=bottom;verticalAlign=top;align=center;html=1;shape=mxgraph.aws3.toolkit_for_visual_studio;fillColor=#53B1CB;gradientColor=none;" vertex="1" parent="1">
          <mxGeometry x="680" y="160" width="70.5" height="78" as="geometry" />
        </mxCell>
        <mxCell id="yzSwMuTql2DnZeXXJh39-7" value="&lt;b style=&quot;font-size: 14px;&quot;&gt;Data producer/&lt;br&gt;Data container&lt;/b&gt;" style="text;html=1;align=center;verticalAlign=middle;resizable=0;points=[];autosize=1;strokeColor=none;fillColor=none;" vertex="1" parent="1">
          <mxGeometry x="660" y="238" width="120" height="50" as="geometry" />
        </mxCell>
        <mxCell id="yzSwMuTql2DnZeXXJh39-8" value="&lt;span style=&quot;font-size: 14px;&quot;&gt;&lt;b&gt;Raw layer&lt;/b&gt;&lt;/span&gt;" style="text;html=1;align=center;verticalAlign=middle;resizable=0;points=[];autosize=1;strokeColor=none;fillColor=none;" vertex="1" parent="1">
          <mxGeometry x="460" y="260" width="90" height="30" as="geometry" />
        </mxCell>
        <mxCell id="yzSwMuTql2DnZeXXJh39-9" value="&lt;span style=&quot;font-size: 14px;&quot;&gt;AWS S3&lt;/span&gt;" style="text;html=1;align=center;verticalAlign=middle;resizable=0;points=[];autosize=1;strokeColor=none;fillColor=none;" vertex="1" parent="1">
          <mxGeometry x="465" y="240" width="80" height="30" as="geometry" />
        </mxCell>
        <mxCell id="yzSwMuTql2DnZeXXJh39-12" value="&lt;span style=&quot;font-size: 14px;&quot;&gt;AWS Glue&lt;/span&gt;" style="text;html=1;align=center;verticalAlign=middle;resizable=0;points=[];autosize=1;strokeColor=none;fillColor=none;" vertex="1" parent="1">
          <mxGeometry x="274" y="238" width="90" height="30" as="geometry" />
        </mxCell>
        <mxCell id="yzSwMuTql2DnZeXXJh39-19" value="Store data" style="edgeStyle=orthogonalEdgeStyle;rounded=0;orthogonalLoop=1;jettySize=auto;html=1;entryX=0.5;entryY=0;entryDx=0;entryDy=0;entryPerimeter=0;startArrow=classic;startFill=1;" edge="1" parent="1" source="yzSwMuTql2DnZeXXJh39-13" target="yzSwMuTql2DnZeXXJh39-16">
          <mxGeometry relative="1" as="geometry" />
        </mxCell>
        <mxCell id="yzSwMuTql2DnZeXXJh39-13" value="&lt;span style=&quot;font-size: 14px;&quot;&gt;&lt;b&gt;Glue Job/ &lt;br&gt;transformer&lt;/b&gt;&lt;/span&gt;" style="text;html=1;align=center;verticalAlign=middle;resizable=0;points=[];autosize=1;strokeColor=none;fillColor=none;" vertex="1" parent="1">
          <mxGeometry x="269" y="260" width="100" height="50" as="geometry" />
        </mxCell>
        <mxCell id="yzSwMuTql2DnZeXXJh39-14" value="&lt;span style=&quot;font-size: 14px;&quot;&gt;AWS S3&lt;/span&gt;" style="text;html=1;align=center;verticalAlign=middle;resizable=0;points=[];autosize=1;strokeColor=none;fillColor=none;" vertex="1" parent="1">
          <mxGeometry x="464" y="448" width="80" height="30" as="geometry" />
        </mxCell>
        <mxCell id="yzSwMuTql2DnZeXXJh39-15" value="&lt;span style=&quot;font-size: 14px;&quot;&gt;&lt;b&gt;Data lake&lt;/b&gt;&lt;/span&gt;" style="text;html=1;align=center;verticalAlign=middle;resizable=0;points=[];autosize=1;strokeColor=none;fillColor=none;" vertex="1" parent="1">
          <mxGeometry x="465" y="470" width="80" height="30" as="geometry" />
        </mxCell>
        <mxCell id="yzSwMuTql2DnZeXXJh39-20" value="Store data" style="edgeStyle=orthogonalEdgeStyle;rounded=0;orthogonalLoop=1;jettySize=auto;html=1;entryX=0;entryY=0.5;entryDx=0;entryDy=0;entryPerimeter=0;startArrow=classic;startFill=1;" edge="1" parent="1" source="yzSwMuTql2DnZeXXJh39-16" target="yzSwMuTql2DnZeXXJh39-4">
          <mxGeometry relative="1" as="geometry" />
        </mxCell>
        <mxCell id="yzSwMuTql2DnZeXXJh39-16" value="" style="sketch=0;points=[[0,0,0],[0.25,0,0],[0.5,0,0],[0.75,0,0],[1,0,0],[0,1,0],[0.25,1,0],[0.5,1,0],[0.75,1,0],[1,1,0],[0,0.25,0],[0,0.5,0],[0,0.75,0],[1,0.25,0],[1,0.5,0],[1,0.75,0]];outlineConnect=0;fontColor=#232F3E;gradientColor=#945DF2;gradientDirection=north;fillColor=#5A30B5;strokeColor=#ffffff;dashed=0;verticalLabelPosition=bottom;verticalAlign=top;align=center;html=1;fontSize=12;fontStyle=0;aspect=fixed;shape=mxgraph.aws4.resourceIcon;resIcon=mxgraph.aws4.athena;" vertex="1" parent="1">
          <mxGeometry x="280" y="370" width="78" height="78" as="geometry" />
        </mxCell>
        <mxCell id="yzSwMuTql2DnZeXXJh39-17" value="&lt;span style=&quot;font-size: 14px;&quot;&gt;AWS Athena&lt;/span&gt;" style="text;html=1;align=center;verticalAlign=middle;resizable=0;points=[];autosize=1;strokeColor=none;fillColor=none;" vertex="1" parent="1">
          <mxGeometry x="269" y="448" width="100" height="30" as="geometry" />
        </mxCell>
        <mxCell id="yzSwMuTql2DnZeXXJh39-18" value="&lt;span style=&quot;font-size: 14px;&quot;&gt;&lt;b&gt;Database engine&lt;/b&gt;&lt;/span&gt;" style="text;html=1;align=center;verticalAlign=middle;resizable=0;points=[];autosize=1;strokeColor=none;fillColor=none;" vertex="1" parent="1">
          <mxGeometry x="254" y="470" width="130" height="30" as="geometry" />
        </mxCell>
      </root>
    </mxGraphModel>
  </diagram>
</mxfile>
